<mxfile host="app.diagrams.net" agent="Mozilla/5.0 (Windows NT 10.0; Win64; x64) AppleWebKit/537.36 (KHTML, like Gecko) Chrome/131.0.0.0 Safari/537.36" version="24.8.3">
  <diagram name="Page-1" id="3MQLyaqwNEJ2WR4THpn-">
    <mxGraphModel dx="1434" dy="738" grid="1" gridSize="10" guides="1" tooltips="1" connect="1" arrows="1" fold="1" page="1" pageScale="1" pageWidth="850" pageHeight="1100" math="0" shadow="0">
      <root>
        <mxCell id="0" />
        <mxCell id="1" parent="0" />
        <mxCell id="t1RvO9Ly-jw2Nj_3bfQF-1" value="Landing Title Screen" style="rounded=0;whiteSpace=wrap;html=1;" vertex="1" parent="1">
          <mxGeometry x="65" y="415" width="720" height="270" as="geometry" />
        </mxCell>
        <mxCell id="t1RvO9Ly-jw2Nj_3bfQF-2" value="Toggle Ron Swanson" style="rounded=0;whiteSpace=wrap;html=1;" vertex="1" parent="1">
          <mxGeometry x="65" y="650" width="185" height="35" as="geometry" />
        </mxCell>
        <mxCell id="t1RvO9Ly-jw2Nj_3bfQF-4" value="Light/Dark Mode" style="rounded=0;whiteSpace=wrap;html=1;" vertex="1" parent="1">
          <mxGeometry x="600" y="650" width="185" height="35" as="geometry" />
        </mxCell>
        <mxCell id="t1RvO9Ly-jw2Nj_3bfQF-5" value="Log In" style="rounded=0;whiteSpace=wrap;html=1;" vertex="1" parent="1">
          <mxGeometry x="710" width="140" height="30" as="geometry" />
        </mxCell>
      </root>
    </mxGraphModel>
  </diagram>
</mxfile>
